<svg width="464" height="577" viewBox="0 0 464 577" fill="none" xmlns="http://www.w3.org/2000/svg">
<rect x="225.839" y="327.555" width="54" height="54" rx="8.5" transform="rotate(-15.8131 225.839 327.555)" stroke="white" stroke-width="3"/>
<rect x="225.839" y="327.555" width="54" height="54" rx="8.5" transform="rotate(-15.8131 225.839 327.555)" stroke="white" stroke-width="3"/>
<path d="M408.471 530.42C406.993 526.452 410.364 522.372 414.539 523.076L438.445 527.105C442.62 527.808 444.468 532.768 441.771 536.032L426.329 554.72C423.632 557.984 418.413 557.104 416.935 553.137L408.471 530.42Z" stroke="white" stroke-width="3"/>
<path d="M23.4714 286.42C21.9933 282.452 25.3644 278.372 29.5394 279.076L53.4449 283.105C57.6199 283.808 59.4676 288.768 56.7707 292.032L41.3289 310.72C38.632 313.984 33.4133 313.104 31.9351 309.137L23.4714 286.42Z" stroke="white" stroke-width="3"/>
<path d="M124 21C124 21 175.095 3 209 3C242.905 3 294 21 294 21" stroke="white" stroke-width="5" stroke-linecap="round"/>
<path d="M124 38C124 38 175.095 21 209 21C242.905 21 294 38 294 38" stroke="white" stroke-width="5" stroke-linecap="round"/>
</svg>
