<svg width="259" height="298" viewBox="0 0 259 298" fill="none" xmlns="http://www.w3.org/2000/svg">
<rect x="51.1049" y="234.77" width="54" height="54" rx="8.5" transform="rotate(7.80613 51.1049 234.77)" stroke="white" stroke-width="3"/>
<rect x="51.1049" y="234.77" width="54" height="54" rx="8.5" transform="rotate(7.80613 51.1049 234.77)" stroke="white" stroke-width="3"/>
<path d="M203.471 163.42C201.993 159.452 205.364 155.372 209.539 156.076L233.445 160.105C237.62 160.808 239.467 165.768 236.771 169.032L221.329 187.72C218.632 190.984 213.413 190.104 211.935 186.137L203.471 163.42Z" stroke="white" stroke-width="3"/>
<path d="M40.2278 20.1539C43.7167 17.7552 48.4938 20.0329 48.8267 24.2537L50.7323 48.4213C51.0652 52.6421 46.704 55.6404 42.8823 53.8183L20.9997 43.3848C17.178 41.5627 16.7619 36.2867 20.2508 33.888L40.2278 20.1539Z" stroke="#E23063" stroke-width="3"/>
</svg>
