<svg width="675" height="93" viewBox="0 0 675 93" fill="none" xmlns="http://www.w3.org/2000/svg">
<rect x="2.06083" y="72.8134" width="33.6446" height="33.6446" rx="8.5" transform="rotate(-58.7159 2.06083 72.8134)" stroke="white" stroke-width="3"/>
<rect x="2.06083" y="72.8134" width="33.6446" height="33.6446" rx="8.5" transform="rotate(-58.7159 2.06083 72.8134)" stroke="white" stroke-width="3"/>
<rect x="626.061" y="38.8134" width="33.6446" height="33.6446" rx="8.5" transform="rotate(-58.7159 626.061 38.8134)" stroke="white" stroke-width="3"/>
<rect x="626.061" y="38.8134" width="33.6446" height="33.6446" rx="8.5" transform="rotate(-58.7159 626.061 38.8134)" stroke="white" stroke-width="3"/>
<path d="M192 29C192 29 267.14 3 317 3C366.86 3 442 29 442 29" stroke="white" stroke-width="5" stroke-linecap="round"/>
<path d="M192 55C192 55 267.14 29 317 29C366.86 29 442 55 442 55" stroke="white" stroke-width="5" stroke-linecap="round"/>
</svg>
