<svg width="30" height="30" viewBox="0 0 30 30" fill="none" xmlns="http://www.w3.org/2000/svg">
<path fill-rule="evenodd" clip-rule="evenodd" d="M15 0C10.9263 0 10.4154 0.0172674 8.81553 0.0902668C7.21895 0.163087 6.12855 0.41668 5.17444 0.787512C4.18805 1.17079 3.35154 1.68369 2.51758 2.51758C1.68368 3.35153 1.17079 4.18805 0.787511 5.17444C0.41668 6.12855 0.163088 7.21896 0.0902667 8.81553C0.0172673 10.4155 0 10.9263 0 15.0001C0 19.0738 0.0172673 19.5846 0.0902667 21.1846C0.163088 22.7811 0.41668 23.8716 0.787511 24.8256C1.17079 25.812 1.68368 26.6486 2.51758 27.4825C3.35154 28.3163 4.18805 28.8293 5.17444 29.2126C6.12855 29.5834 7.21895 29.8369 8.81553 29.9098C10.4154 29.9827 10.9263 30 15 30C19.0738 30 19.5846 29.9827 21.1845 29.9098C22.7811 29.8369 23.8714 29.5834 24.8256 29.2126C25.8119 28.8293 26.6484 28.3163 27.4825 27.4825C28.3163 26.6486 28.8293 25.812 29.2126 24.8256C29.5834 23.8716 29.837 22.7811 29.9097 21.1846C29.9827 19.5846 30 19.0738 30 15.0001C30 10.9263 29.9827 10.4155 29.9097 8.81553C29.837 7.21896 29.5834 6.12855 29.2126 5.17444C28.8293 4.18805 28.3163 3.35153 27.4825 2.51758C26.6484 1.68369 25.8119 1.17079 24.8256 0.787512C23.8714 0.41668 22.7811 0.163087 21.1845 0.0902668C19.5846 0.0172674 19.0738 0 15 0ZM15 2.7027C19.0051 2.7027 19.4797 2.71801 21.0613 2.79017C22.5238 2.85685 23.318 3.10122 23.8466 3.30665C24.5468 3.57876 25.0464 3.9038 25.5713 4.42873C26.0963 4.95359 26.4212 5.45328 26.6935 6.15344C26.8988 6.682 27.1432 7.47624 27.2099 8.93873C27.282 10.5204 27.2974 10.9949 27.2974 15.0001C27.2974 19.0051 27.282 19.4797 27.2099 21.0613C27.1432 22.5238 26.8988 23.318 26.6935 23.8467C26.4212 24.5468 26.0963 25.0464 25.5713 25.5713C25.0464 26.0963 24.5468 26.4212 23.8466 26.6935C23.318 26.8989 22.5238 27.1432 21.0613 27.2099C19.4799 27.282 19.0055 27.2974 15 27.2974C10.9946 27.2974 10.5202 27.282 8.93872 27.2099C7.47623 27.1432 6.68199 26.8989 6.15344 26.6935C5.45328 26.4212 4.95359 26.0963 4.42873 25.5713C3.90386 25.0464 3.57876 24.5468 3.30665 23.8467C3.10122 23.318 2.85685 22.5238 2.79017 21.0613C2.718 19.4797 2.70271 19.0051 2.70271 15.0001C2.70271 10.9949 2.718 10.5204 2.79017 8.93873C2.85685 7.47624 3.10122 6.682 3.30665 6.15344C3.57876 5.45328 3.9038 4.95359 4.42873 4.42873C4.95359 3.9038 5.45328 3.57876 6.15344 3.30665C6.68199 3.10122 7.47623 2.85685 8.93872 2.79017C10.5204 2.71801 10.9949 2.7027 15 2.7027ZM15 20.0001C12.2386 20.0001 10 17.7615 10 15.0001C10 12.2386 12.2386 10 15 10C17.7615 10 20.0001 12.2386 20.0001 15.0001C20.0001 17.7615 17.7615 20.0001 15 20.0001ZM15 7.29731C10.7459 7.29731 7.29731 10.7459 7.29731 15.0001C7.29731 19.2541 10.7459 22.7027 15 22.7027C19.2541 22.7027 22.7027 19.2541 22.7027 15.0001C22.7027 10.7459 19.2541 7.29731 15 7.29731ZM23.007 8.79297C24.0012 8.79297 24.8071 7.98712 24.8071 6.99299C24.8071 5.99886 24.0012 5.19296 23.007 5.19296C22.013 5.19296 21.2071 5.99886 21.2071 6.99299C21.2071 7.98712 22.013 8.79297 23.007 8.79297Z" fill="white"/>
</svg>
