<svg width="30" height="30" viewBox="0 0 30 30" fill="none" xmlns="http://www.w3.org/2000/svg">
<path d="M30 2.20589V27.7941C30 28.3791 29.7676 28.9402 29.3539 29.3539C28.9402 29.7676 28.3791 30 27.7941 30H2.20589C1.62084 30 1.05977 29.7676 0.646095 29.3539C0.23241 28.9402 0 28.3791 0 27.7941V2.20589C0 1.62084 0.23241 1.05977 0.646095 0.646095C1.05977 0.23241 1.62084 0 2.20589 0H27.7941C28.3791 0 28.9402 0.23241 29.3539 0.646095C29.7676 1.05977 30 1.62084 30 2.20589ZM8.82352 11.4706H4.41177V25.5882H8.82352V11.4706ZM9.22059 6.61765C9.22292 6.28393 9.15948 5.95303 9.03391 5.64382C8.90836 5.33463 8.72313 5.05319 8.48879 4.81559C8.25446 4.57797 7.97562 4.38884 7.6682 4.259C7.36077 4.12916 7.03077 4.06113 6.69707 4.05882H6.61765C5.93901 4.05882 5.28816 4.32842 4.80828 4.80828C4.32842 5.28816 4.05882 5.93901 4.05882 6.61765C4.05882 7.29628 4.32842 7.94714 4.80828 8.42702C5.28816 8.90688 5.93901 9.17648 6.61765 9.17648C6.95139 9.18468 7.28348 9.12705 7.59492 9.00687C7.90638 8.8867 8.19111 8.70633 8.43284 8.47608C8.67456 8.24583 8.86855 7.97019 9.00372 7.66494C9.13888 7.35969 9.21258 7.0308 9.22059 6.69707V6.61765ZM25.5882 17.0118C25.5882 12.7677 22.8882 11.1177 20.2059 11.1177C19.3277 11.0737 18.4531 11.2607 17.6698 11.6602C16.8864 12.0595 16.2214 12.6575 15.7411 13.3941H15.6177V11.4706H11.4706V25.5882H15.8823V18.0794C15.8185 17.3105 16.0608 16.5473 16.5564 15.9558C17.0521 15.3644 17.761 14.9923 18.5293 14.9206H18.697C20.1 14.9206 21.1412 15.803 21.1412 18.0264V25.5882H25.5529L25.5882 17.0118Z" fill="white"/>
</svg>
