<svg width="30" height="30" viewBox="0 0 30 30" fill="none" xmlns="http://www.w3.org/2000/svg">
<path fill-rule="evenodd" clip-rule="evenodd" d="M29.3731 8.08462C29.0282 6.87045 28.0116 5.9142 26.7208 5.58969C24.3814 5 15 5 15 5C15 5 5.6188 5 3.2792 5.58969C1.98847 5.91425 0.971906 6.87045 0.626881 8.08462C0 10.2854 0 14.8771 0 14.8771C0 14.8771 0 19.4687 0.626881 21.6695C0.971906 22.8837 1.98847 23.8 3.2792 24.1246C5.6188 24.7143 15 24.7143 15 24.7143C15 24.7143 24.3812 24.7143 26.7208 24.1246C28.0116 23.8 29.0282 22.8837 29.3731 21.6695C30 19.4687 30 14.8771 30 14.8771C30 14.8771 30 10.2854 29.3731 8.08462ZM11.9318 19.046V10.7082L19.7727 14.8771L11.9318 19.046Z" fill="white"/>
</svg>
