<svg width="40" height="52" viewBox="0 0 40 52" fill="none" xmlns="http://www.w3.org/2000/svg">
<path d="M25.3266 18.7344C22.0865 18.7344 19.4471 20.7071 17.7703 20.7071C15.9587 20.7071 13.6167 18.8479 10.7689 18.8479C5.41969 18.8479 0 23.275 0 31.6017C0 36.8081 1.99866 42.3121 4.47554 45.8434C6.61214 48.8225 8.47286 51.2983 11.1582 51.2983C13.822 51.2983 14.993 49.5342 18.3006 49.5342C21.6512 49.5342 22.3869 51.2523 25.3266 51.2523C28.2388 51.2523 30.1915 48.5924 32.0093 45.9539C34.0723 42.9288 35.0441 40.8821 35.0686 40.7441C34.9061 40.698 36.7852 37.977 36.7852 31.6017C36.7852 26.0976 33.591 23.1861 33.8424 23.002C30.9517 18.8479 26.5436 18.7344 25.3266 18.7344Z" fill="white"/>
<path d="M2.94003 4.10542C1.29632 10.4004 5.80538 19.2632 8.26538 22.9077L12.7405 22.9068C12.9147 20.3647 13.005 14.4413 11.9722 11.0843C10.6813 6.88812 4.99466 -3.76329 2.94003 4.10542Z" fill="white"/>
<path d="M26.3136 2.48584C21.7936 7.1622 21.3742 17.0989 21.7294 21.4827L25.6285 23.6809C27.0273 21.5519 30.0117 16.4359 30.7587 13.0039C31.6926 8.71398 31.9636 -3.3596 26.3136 2.48584Z" fill="white"/>
<path d="M32.906 41.7143C31.896 38.682 29.4521 37.8286 28.3564 37.7809L27.6894 37.9719C26.9827 38.2341 25.4551 38.8635 24.9978 39.2831C24.4262 39.8076 24.3786 40.9042 24.6406 42.4538C24.9027 44.0033 26.046 45.4813 27.1179 46.0773L29.6904 47.5076C31.8104 47.5631 36.8029 46.5204 37.4317 46.1962C38.2177 45.7909 34.1685 45.5047 32.906 41.7143Z" fill="white"/>
</svg>
