<svg width="98" height="92" viewBox="0 0 98 92" fill="none" xmlns="http://www.w3.org/2000/svg">
<g id="logo">
<path id="logo_2" fill-rule="evenodd" clip-rule="evenodd" d="M21.5823 62.0086C19.4085 62.1873 16.1477 61.4874 14.789 61.1151L14.5574 61.2294L14.5625 61.1151C14.537 61.1047 14.5116 61.0941 14.4863 61.0836C14.4545 61.0703 14.4227 61.0569 14.3911 61.0434C13.6425 60.7249 12.9534 60.36 12.3199 59.9595C7.54917 56.9433 5.92941 51.9106 5.73128 49.5001C5.05195 48.7183 4.42923 47.9598 3.85948 47.2243C-4.68685 36.1915 -1.31675 30.3324 1.65531 28.727C3.2857 33.7304 8.22214 34.9813 10.4866 34.9813C15.1966 33.1943 24.0731 32.5987 27.9226 32.5242L29.9606 30.2906C25.7941 21.892 29.8851 17.7076 32.4515 16.6652C35.35 20.0604 39.6977 21.9515 41.5092 22.4727C41.3414 21.844 41.1842 21.2528 41.0368 20.6966C38.8256 12.3541 38.8281 11.8879 38.8351 10.5814M76.647 61.2304L76.3814 61.1151C74.9321 62.1873 72.0035 62.1575 70.7203 62.0086C66.1915 68.2629 58.115 67.8906 54.6429 66.9227C52.8314 72.1048 48.3025 75.0383 46.2645 75.8573C42.4603 74.7852 38.9429 69.4542 37.6597 66.9227C28.4209 68.8883 23.0919 64.4656 21.5823 62.0086M76.647 61.2304C76.6343 61.1911 76.6212 61.1526 76.6078 61.1151C78.8014 61.0453 83.5691 59.0254 86.097 51.7058C86.255 51.2483 86.4042 50.7701 86.5435 50.2704C86.5528 50.2371 86.562 50.2037 86.5713 50.1702C91.6285 44.8094 99.5691 33.0156 90.8737 28.727C89.8169 31.2585 85.8013 35.8301 78.1929 33.8644C70.5844 31.8988 65.3611 32.7476 63.7006 33.4177L61.889 30.2906C63.6251 27.9824 65.6932 22.026 60.0775 16.6652C57.7376 19.2711 51.835 24.215 46.9438 23.1428H46.038C46.038 22.1935 46.1399 20.5071 46.4966 19.6478C46.6155 19.3614 46.7627 19.1669 46.9438 19.1222C47.0272 19.1017 47.2047 19.083 47.4553 19.0566C47.4554 19.0566 47.4555 19.0566 47.4556 19.0566C47.4556 19.0566 47.4556 19.0566 47.4557 19.0566" fill="#5C31BB"/>
<path id="logo_3" fill-rule="evenodd" clip-rule="evenodd" d="M23.1011 62.0087C20.9272 62.1874 17.6664 61.4875 16.3078 61.1153L16.0763 61.2294C16.0763 61.2294 16.0763 61.2293 16.0763 61.2292L16.0814 61.1152C16.0796 61.1527 16.0779 61.1907 16.0763 61.2292L16.0763 61.2294L16.0763 61.2294C15.9385 64.4904 16.2922 71.7956 18.7987 75.8574C21.9689 80.9949 27.8564 89.2594 34.1968 91.2697C34.7252 91.7164 36.2348 92.2079 38.0463 90.5996C39.8579 88.9914 41.0656 87.8448 41.443 87.4725C44.3112 87.7703 50.4554 88.1873 52.0858 87.4725C53.1425 88.9616 55.6636 91.9398 57.2939 91.9398C57.5324 91.9398 57.7553 91.9551 57.9768 91.9703C59.6492 92.085 61.2443 92.1943 68.8425 85.6855C77.3623 78.3873 79.4444 65.1768 78.1659 61.2306L77.9001 61.1153C76.4509 62.1874 73.5223 62.1576 72.2391 62.0087C67.7102 68.263 59.6338 67.8907 56.1617 66.9228C54.3501 72.1049 49.8213 75.0384 47.7833 75.8574C43.9791 74.7853 40.4617 69.4543 39.1785 66.9228C29.9396 68.8884 24.6107 64.4658 23.1011 62.0087Z" fill="#8A68DA"/>
<path id="logo_4" fill-rule="evenodd" clip-rule="evenodd" d="M16.3617 61.459C17.7204 61.8313 20.9812 62.5312 23.155 62.3525C24.6646 64.8095 29.9936 69.2322 39.2324 67.2666C40.5156 69.7981 44.033 75.1291 47.8372 76.2012C49.8752 75.3822 54.4041 72.4487 56.2156 67.2666C59.6877 68.2345 67.7642 68.6068 72.293 62.3525C73.5762 62.5014 76.5049 62.5312 77.9541 61.459L78.2199 61.5744C78.2072 61.535 78.1941 61.4966 78.1806 61.459C80.5206 61.3846 85.7891 59.0913 88.1441 50.5141C93.2013 45.1533 101.142 33.3595 92.4465 29.0709C91.3898 31.6024 87.3742 36.1739 79.7657 34.2083C72.1573 32.2427 66.934 33.0915 65.2734 33.7616L63.4619 30.6345C65.1979 28.3263 67.2661 22.3699 61.6503 17.0091C59.3104 19.615 53.4078 24.5589 48.5167 23.4867H47.6109C47.6109 22.221 47.7921 19.6448 48.5167 19.4661C48.6001 19.4456 48.7777 19.4269 49.0285 19.4005C51.5009 19.1404 61.0902 18.1317 57.8008 7.18097C54.1777 -4.88083 40.1383 6.06413 40.3648 9.41463C40.4123 10.1177 40.4099 10.5552 40.408 10.9253C40.4005 12.3189 40.3982 12.7564 43.0821 22.8166C41.2705 22.2954 36.9228 20.4043 34.0244 17.0091C31.458 18.0515 27.367 22.2359 31.5335 30.6345L29.4955 32.8681C25.646 32.9426 16.7694 33.5382 12.0594 35.3252C9.79502 35.3251 4.85857 34.0743 3.22818 29.0709C0.0579881 30.7834 -3.56509 37.3354 7.30415 49.844C7.53058 52.5988 9.61384 58.7786 16.1354 61.459C16.1336 61.4965 16.1319 61.5346 16.1303 61.5732L16.3617 61.459Z" fill="#5C31BB"/>
<path id="logo_5" fill-rule="evenodd" clip-rule="evenodd" d="M18.0386 59.8052C19.3973 60.1775 22.6581 60.8774 24.8319 60.6987C26.3415 63.1557 31.6705 67.5784 40.9093 65.6128C42.1925 68.1442 45.7099 73.4753 49.5141 74.5474C51.5521 73.7284 56.081 70.7949 57.8925 65.6128C61.3646 66.5807 69.4411 66.953 73.9699 60.6987C75.2531 60.8476 78.1818 60.8774 79.631 59.8052L79.8967 59.9205C79.8839 59.8812 79.8708 59.8427 79.8574 59.8052C82.1973 59.7308 87.4659 57.4375 89.8209 48.8603C94.8781 43.4995 102.819 31.7057 94.1233 27.4171C93.0666 29.9486 89.051 34.5201 81.4425 32.5545C73.834 30.5889 68.6108 31.4377 66.9502 32.1078L65.1386 28.9806C66.8747 26.6725 68.9429 20.7161 63.3271 15.3553C60.9872 17.9612 55.0846 22.9051 50.1934 21.8329H49.2877C49.2877 20.5672 49.4688 17.991 50.1934 17.8123C50.2769 17.7917 50.4545 17.7731 50.7053 17.7467C53.1776 17.4866 62.7669 16.4779 59.4776 5.52716C55.8545 -6.53463 41.8151 4.41033 42.0415 7.76082C42.089 8.46389 42.0867 8.9014 42.0847 9.27149C42.0773 10.6651 42.0749 11.1026 44.7588 21.1628C42.9473 20.6416 38.5996 18.7505 35.7011 15.3553C33.1348 16.3977 29.0437 20.5821 33.2103 28.9806L31.1723 31.2143C27.3228 31.2888 18.4462 31.8844 13.7362 33.6713C11.4718 33.6713 6.53533 32.4205 4.90494 27.4171C1.73475 29.1296 -1.88833 35.6816 8.98091 48.1902C9.20734 50.945 11.2906 57.1248 17.8122 59.8052C17.8104 59.8427 17.8087 59.8808 17.807 59.9194L18.0386 59.8052Z" fill="#E23063"/>
</g>
</svg>
