<svg width="32" height="50" viewBox="0 0 32 50" fill="none" xmlns="http://www.w3.org/2000/svg">
<ellipse cx="7.84733" cy="27.1005" rx="2.26628" ry="3.77924" fill="white"/>
<path fill-rule="evenodd" clip-rule="evenodd" d="M0.327174 30.988C-1.65067 22.4361 5.82119 16.3389 9.80435 14.3593C9.80435 14.3593 13.3499 -4.45233e-05 14.5248 1.03539e-10C15.6579 4.29399e-05 20.7237 14.3593 20.7237 14.3593C31.2722 19.1104 31.8491 27.4247 30.8189 30.988C29.3356 38.4169 23.0587 41.1379 20.1056 41.5698C21.9186 43.8158 21.9598 45.529 21.7538 46.1049C20.7237 49.7762 18.1484 49.8841 14.5429 49.7762C11.6586 49.6898 10.1821 47.2927 9.80435 46.1049C9.39229 44.1181 10.5254 42.2537 11.1435 41.5698C3.56177 40.1013 0.773562 33.9034 0.327174 30.988ZM11.9676 27.1015C11.9676 30.8584 10.1228 33.9041 7.84712 33.9041C5.57143 33.9041 3.72661 30.8584 3.72661 27.1015C3.72661 23.3445 5.57143 20.2988 7.84712 20.2988C10.1228 20.2988 11.9676 23.3445 11.9676 27.1015ZM23.5049 33.9041C25.7806 33.9041 27.6254 30.8584 27.6254 27.1015C27.6254 23.3445 25.7806 20.2988 23.5049 20.2988C21.2292 20.2988 19.3844 23.3445 19.3844 27.1015C19.3844 30.8584 21.2292 33.9041 23.5049 33.9041Z" fill="white"/>
<ellipse cx="23.505" cy="27.1005" rx="2.26628" ry="3.77924" fill="white"/>
<rect x="2.67822" y="26.9932" width="25.9592" height="0.431913" fill="white"/>
</svg>
