<svg width="56" height="56" viewBox="0 0 56 56" fill="none" xmlns="http://www.w3.org/2000/svg">
<g filter="url(#filter0_d_351_3448)">
<circle cx="27.7094" cy="23.5473" r="23.0473" fill="white" stroke="white"/>
<mask id="path-2-inside-1_351_3448" fill="white">
<path fill-rule="evenodd" clip-rule="evenodd" d="M7.47168 35.5916C11.5803 42.4802 19.1061 47.0943 27.7096 47.0943C40.7144 47.0943 51.2569 36.5519 51.2569 23.5471C51.2569 19.3687 50.1686 15.4445 48.26 12.0425L7.47168 35.5916Z"/>
</mask>
<path fill-rule="evenodd" clip-rule="evenodd" d="M7.47168 35.5916C11.5803 42.4802 19.1061 47.0943 27.7096 47.0943C40.7144 47.0943 51.2569 36.5519 51.2569 23.5471C51.2569 19.3687 50.1686 15.4445 48.26 12.0425L7.47168 35.5916Z" fill="#26E55F"/>
<path d="M7.47168 35.5916L6.97168 34.7256L6.09328 35.2327L6.61284 36.1039L7.47168 35.5916ZM48.26 12.0425L49.1321 11.5532L48.6368 10.6703L47.76 11.1765L48.26 12.0425ZM27.7096 46.0943C19.4727 46.0943 12.2662 41.6781 8.33052 35.0794L6.61284 36.1039C10.8943 43.2824 18.7395 48.0943 27.7096 48.0943V46.0943ZM50.2569 23.5471C50.2569 35.9996 40.1621 46.0943 27.7096 46.0943V48.0943C41.2667 48.0943 52.2569 37.1042 52.2569 23.5471H50.2569ZM47.3879 12.5318C49.2148 15.7882 50.2569 19.5444 50.2569 23.5471H52.2569C52.2569 19.1929 51.1224 15.1008 49.1321 11.5532L47.3879 12.5318ZM47.76 11.1765L6.97168 34.7256L7.97168 36.4576L48.76 12.9085L47.76 11.1765Z" fill="white" mask="url(#path-2-inside-1_351_3448)"/>
<circle cx="27.7094" cy="24.6963" r="4.66892" fill="#E23063" stroke="white"/>
</g>
<defs>
<filter id="filter0_d_351_3448" x="0.162109" y="0" width="55.0947" height="55.0947" filterUnits="userSpaceOnUse" color-interpolation-filters="sRGB">
<feFlood flood-opacity="0" result="BackgroundImageFix"/>
<feColorMatrix in="SourceAlpha" type="matrix" values="0 0 0 0 0 0 0 0 0 0 0 0 0 0 0 0 0 0 127 0" result="hardAlpha"/>
<feOffset dy="4"/>
<feGaussianBlur stdDeviation="2"/>
<feComposite in2="hardAlpha" operator="out"/>
<feColorMatrix type="matrix" values="0 0 0 0 0 0 0 0 0 0 0 0 0 0 0 0 0 0 0.25 0"/>
<feBlend mode="normal" in2="BackgroundImageFix" result="effect1_dropShadow_351_3448"/>
<feBlend mode="normal" in="SourceGraphic" in2="effect1_dropShadow_351_3448" result="shape"/>
</filter>
</defs>
</svg>
