<svg width="56" height="56" viewBox="0 0 56 56" fill="none" xmlns="http://www.w3.org/2000/svg">
<g filter="url(#filter0_d_351_3466)">
<circle cx="28.4526" cy="23.5473" r="23.0473" fill="white" stroke="white"/>
<mask id="path-2-inside-1_351_3466" fill="white">
<path fill-rule="evenodd" clip-rule="evenodd" d="M8.21484 35.5916C12.3234 42.4803 19.8493 47.0944 28.4528 47.0944C41.4576 47.0944 52.0001 36.5519 52.0001 23.5471C52.0001 19.3687 50.9118 15.4445 49.0032 12.0425L8.21484 35.5916Z"/>
</mask>
<path fill-rule="evenodd" clip-rule="evenodd" d="M8.21484 35.5916C12.3234 42.4803 19.8493 47.0944 28.4528 47.0944C41.4576 47.0944 52.0001 36.5519 52.0001 23.5471C52.0001 19.3687 50.9118 15.4445 49.0032 12.0425L8.21484 35.5916Z" fill="#E23063"/>
<path d="M8.21484 35.5916L7.71484 34.7256L6.83644 35.2327L7.356 36.1039L8.21484 35.5916ZM49.0032 12.0425L49.8753 11.5532L49.3799 10.6703L48.5032 11.1765L49.0032 12.0425ZM28.4528 46.0944C20.2159 46.0944 13.0093 41.6781 9.07369 35.0794L7.356 36.1039C11.6375 43.2824 19.4827 48.0944 28.4528 48.0944V46.0944ZM51.0001 23.5471C51.0001 35.9996 40.9053 46.0944 28.4528 46.0944V48.0944C42.0099 48.0944 53.0001 37.1042 53.0001 23.5471H51.0001ZM48.131 12.5318C49.958 15.7882 51.0001 19.5445 51.0001 23.5471H53.0001C53.0001 19.193 51.8656 15.1008 49.8753 11.5532L48.131 12.5318ZM48.5032 11.1765L7.71484 34.7256L8.71484 36.4576L49.5032 12.9085L48.5032 11.1765Z" fill="white" mask="url(#path-2-inside-1_351_3466)"/>
<circle cx="28.4526" cy="24.6963" r="4.66892" fill="#26E55F" stroke="white"/>
</g>
<defs>
<filter id="filter0_d_351_3466" x="0.905273" y="0" width="55.0947" height="55.0947" filterUnits="userSpaceOnUse" color-interpolation-filters="sRGB">
<feFlood flood-opacity="0" result="BackgroundImageFix"/>
<feColorMatrix in="SourceAlpha" type="matrix" values="0 0 0 0 0 0 0 0 0 0 0 0 0 0 0 0 0 0 127 0" result="hardAlpha"/>
<feOffset dy="4"/>
<feGaussianBlur stdDeviation="2"/>
<feComposite in2="hardAlpha" operator="out"/>
<feColorMatrix type="matrix" values="0 0 0 0 0 0 0 0 0 0 0 0 0 0 0 0 0 0 0.25 0"/>
<feBlend mode="normal" in2="BackgroundImageFix" result="effect1_dropShadow_351_3466"/>
<feBlend mode="normal" in="SourceGraphic" in2="effect1_dropShadow_351_3466" result="shape"/>
</filter>
</defs>
</svg>
