<svg width="48" height="48" viewBox="0 0 48 48" fill="none" xmlns="http://www.w3.org/2000/svg">
<path d="M47.4997 24C47.4997 36.9787 36.9784 47.5 23.9998 47.5C11.0212 47.5 0.5 36.9787 0.5 24C0.5 11.0213 11.0212 0.5 23.9998 0.5C36.9784 0.5 47.4997 11.0213 47.4997 24Z" fill="white" stroke="white"/>
<mask id="path-2-inside-1_351_3448" fill="white">
<path fill-rule="evenodd" clip-rule="evenodd" d="M3.37305 36.2758C7.56057 43.297 15.2311 47.9999 24.0001 47.9999C37.2548 47.9999 47.9999 37.2547 47.9999 23.9999C47.9999 19.7411 46.8906 15.7414 44.9452 12.2739L3.37305 36.2758Z"/>
</mask>
<path fill-rule="evenodd" clip-rule="evenodd" d="M3.37305 36.2758C7.56057 43.297 15.2311 47.9999 24.0001 47.9999C37.2548 47.9999 47.9999 37.2547 47.9999 23.9999C47.9999 19.7411 46.8906 15.7414 44.9452 12.2739L3.37305 36.2758Z" fill="#26E55F"/>
<path d="M3.37305 36.2758L2.87304 35.4098L1.99466 35.9169L2.5142 36.788L3.37305 36.2758ZM44.9452 12.2739L45.8174 11.7846L45.322 10.9017L44.4452 11.4079L44.9452 12.2739ZM24.0001 46.9999C15.5977 46.9999 8.2465 42.4948 4.2319 35.7636L2.5142 36.788C6.87464 44.0992 14.8645 48.9999 24.0001 48.9999V46.9999ZM46.9999 23.9999C46.9999 36.7025 36.7025 46.9999 24.0001 46.9999V48.9999C37.8071 48.9999 48.9999 37.807 48.9999 23.9999H46.9999ZM44.0731 12.7632C45.9368 16.0851 46.9999 19.9169 46.9999 23.9999H48.9999C48.9999 19.5654 47.8444 15.3977 45.8174 11.7846L44.0731 12.7632ZM44.4452 11.4079L2.87304 35.4098L3.87305 37.1418L45.4453 13.1399L44.4452 11.4079Z" fill="white" mask="url(#path-2-inside-1_351_3448)"/>
<circle cx="24" cy="24" r="4.5" fill="#E23063" stroke="white"/>
</svg>
