<svg width="48" height="48" viewBox="0 0 48 48" fill="none" xmlns="http://www.w3.org/2000/svg">
<circle cx="24" cy="24" r="23.5" fill="white" stroke="white"/>
<mask id="path-2-inside-1_351_3435" fill="white">
<path fill-rule="evenodd" clip-rule="evenodd" d="M3.37305 36.2758C7.5606 43.297 15.2312 47.9999 24.0002 47.9999C37.255 47.9999 48.0002 37.2547 48.0002 23.9999C48.0002 19.7411 46.8909 15.7414 44.9455 12.2739L3.37305 36.2758Z"/>
</mask>
<path fill-rule="evenodd" clip-rule="evenodd" d="M3.37305 36.2758C7.5606 43.297 15.2312 47.9999 24.0002 47.9999C37.255 47.9999 48.0002 37.2547 48.0002 23.9999C48.0002 19.7411 46.8909 15.7414 44.9455 12.2739L3.37305 36.2758Z" fill="#320995"/>
<path d="M3.37305 36.2758L2.87305 35.4098L1.99465 35.9169L2.5142 36.7881L3.37305 36.2758ZM44.9455 12.2739L45.8177 11.7846L45.3223 10.9017L44.4455 11.4079L44.9455 12.2739ZM24.0002 46.9999C15.5978 46.9999 8.24652 42.4948 4.23189 35.7636L2.5142 36.7881C6.87468 44.0992 14.8646 48.9999 24.0002 48.9999V46.9999ZM47.0002 23.9999C47.0002 36.7024 36.7027 46.9999 24.0002 46.9999V48.9999C37.8073 48.9999 49.0002 37.807 49.0002 23.9999H47.0002ZM44.0734 12.7632C45.9371 16.0851 47.0002 19.9168 47.0002 23.9999H49.0002C49.0002 19.5653 47.8447 15.3977 45.8177 11.7846L44.0734 12.7632ZM44.4455 11.4079L2.87305 35.4098L3.87305 37.1418L45.4455 13.14L44.4455 11.4079Z" fill="white" mask="url(#path-2-inside-1_351_3435)"/>
<circle cx="24" cy="24" r="4.5" fill="#E23063" stroke="white"/>
</svg>
