<svg width="48" height="48" viewBox="0 0 48 48" fill="none" xmlns="http://www.w3.org/2000/svg">
<circle cx="24" cy="24" r="23.5" fill="white" stroke="white"/>
<mask id="path-2-inside-1_351_3442" fill="white">
<path fill-rule="evenodd" clip-rule="evenodd" d="M3.37305 36.2758C7.56064 43.2968 15.2311 47.9996 24 47.9996C37.2548 47.9996 48 37.2544 48 23.9996C48 19.7409 46.8908 15.7413 44.9455 12.2739L3.37305 36.2758Z"/>
</mask>
<path fill-rule="evenodd" clip-rule="evenodd" d="M3.37305 36.2758C7.56064 43.2968 15.2311 47.9996 24 47.9996C37.2548 47.9996 48 37.2544 48 23.9996C48 19.7409 46.8908 15.7413 44.9455 12.2739L3.37305 36.2758Z" fill="#E23063"/>
<path d="M3.37305 36.2758L2.87305 35.4098L1.99464 35.9169L2.51421 36.7881L3.37305 36.2758ZM44.9455 12.2739L45.8177 11.7846L45.3223 10.9017L44.4455 11.4079L44.9455 12.2739ZM24 46.9996C15.5977 46.9996 8.24656 42.4946 4.23189 35.7636L2.51421 36.7881C6.87472 44.099 14.8646 48.9996 24 48.9996V46.9996ZM47 23.9996C47 36.7021 36.7026 46.9996 24 46.9996V48.9996C37.8071 48.9996 49 37.8067 49 23.9996H47ZM44.0734 12.7632C45.937 16.085 47 19.9167 47 23.9996H49C49 19.5652 47.8446 15.3976 45.8177 11.7846L44.0734 12.7632ZM44.4455 11.4079L2.87305 35.4098L3.87305 37.1418L45.4455 13.14L44.4455 11.4079Z" fill="white" mask="url(#path-2-inside-1_351_3442)"/>
<circle cx="24" cy="24" r="4.5" fill="#320995" stroke="white"/>
</svg>
