<svg width="48" height="48" viewBox="0 0 48 48" fill="none" xmlns="http://www.w3.org/2000/svg">
<path d="M47.4995 24C47.4995 36.9787 36.9783 47.5 23.9998 47.5C11.0212 47.5 0.5 36.9787 0.5 24C0.5 11.0213 11.0212 0.5 23.9998 0.5C36.9783 0.5 47.4995 11.0213 47.4995 24Z" fill="white" stroke="white"/>
<mask id="path-2-inside-1_351_3454" fill="white">
<path fill-rule="evenodd" clip-rule="evenodd" d="M3.37354 36.2758C7.56106 43.2969 15.2315 47.9998 24.0004 47.9998C37.2551 47.9998 48.0002 37.2546 48.0002 23.9998C48.0002 19.741 46.8909 15.7414 44.9456 12.2739L3.37354 36.2758Z"/>
</mask>
<path fill-rule="evenodd" clip-rule="evenodd" d="M3.37354 36.2758C7.56106 43.2969 15.2315 47.9998 24.0004 47.9998C37.2551 47.9998 48.0002 37.2546 48.0002 23.9998C48.0002 19.741 46.8909 15.7414 44.9456 12.2739L3.37354 36.2758Z" fill="#8A68DA"/>
<path d="M3.37354 36.2758L2.87353 35.4098L1.99514 35.9169L2.51469 36.788L3.37354 36.2758ZM44.9456 12.2739L45.8177 11.7846L45.3224 10.9017L44.4456 11.4079L44.9456 12.2739ZM24.0004 46.9998C15.5981 46.9998 8.24699 42.4948 4.23238 35.7636L2.51469 36.788C6.87514 44.0991 14.865 48.9998 24.0004 48.9998V46.9998ZM47.0002 23.9998C47.0002 36.7023 36.7028 46.9998 24.0004 46.9998V48.9998C37.8074 48.9998 49.0002 37.8069 49.0002 23.9998H47.0002ZM44.0735 12.7632C45.9371 16.0851 47.0002 19.9168 47.0002 23.9998H49.0002C49.0002 19.5653 47.8447 15.3976 45.8177 11.7846L44.0735 12.7632ZM44.4456 11.4079L2.87353 35.4098L3.87354 37.1418L45.4456 13.1399L44.4456 11.4079Z" fill="white" mask="url(#path-2-inside-1_351_3454)"/>
<path d="M28.5 24C28.5 26.4853 26.4853 28.5 24 28.5C21.5147 28.5 19.5 26.4853 19.5 24C19.5 21.5147 21.5147 19.5 24 19.5C26.4853 19.5 28.5 21.5147 28.5 24Z" fill="#320995" stroke="white"/>
</svg>
