<svg width="48" height="48" viewBox="0 0 48 48" fill="none" xmlns="http://www.w3.org/2000/svg">
<path d="M47.4997 24C47.4997 36.9787 36.9784 47.5 23.9998 47.5C11.0212 47.5 0.5 36.9787 0.5 24C0.5 11.0213 11.0212 0.5 23.9998 0.5C36.9784 0.5 47.4997 11.0213 47.4997 24Z" fill="white" stroke="white"/>
<mask id="path-2-inside-1_351_3460" fill="white">
<path fill-rule="evenodd" clip-rule="evenodd" d="M3.37354 36.2763C7.5611 43.2973 15.2315 48.0001 24.0003 48.0001C37.2551 48.0001 48.0002 37.2549 48.0002 24.0001C48.0002 19.7414 46.891 15.7418 44.9457 12.2744L3.37354 36.2763Z"/>
</mask>
<path fill-rule="evenodd" clip-rule="evenodd" d="M3.37354 36.2763C7.5611 43.2973 15.2315 48.0001 24.0003 48.0001C37.2551 48.0001 48.0002 37.2549 48.0002 24.0001C48.0002 19.7414 46.891 15.7418 44.9457 12.2744L3.37354 36.2763Z" fill="#26E55F"/>
<path d="M3.37354 36.2763L2.87353 35.4103L1.99513 35.9174L2.51469 36.7885L3.37354 36.2763ZM44.9457 12.2744L45.8179 11.7851L45.3225 10.9022L44.4457 11.4084L44.9457 12.2744ZM24.0003 47.0001C15.5981 47.0001 8.24702 42.4951 4.23238 35.7641L2.51469 36.7885C6.87518 44.0995 14.865 49.0001 24.0003 49.0001V47.0001ZM47.0002 24.0001C47.0002 36.7026 36.7028 47.0001 24.0003 47.0001V49.0001C37.8074 49.0001 49.0002 37.8072 49.0002 24.0001H47.0002ZM44.0736 12.7637C45.9372 16.0855 47.0002 19.9171 47.0002 24.0001H49.0002C49.0002 19.5657 47.8448 15.3981 45.8179 11.7851L44.0736 12.7637ZM44.4457 11.4084L2.87353 35.4103L3.87354 37.1423L45.4457 13.1404L44.4457 11.4084Z" fill="white" mask="url(#path-2-inside-1_351_3460)"/>
<circle cx="24" cy="24" r="4.5" fill="#320995" stroke="white"/>
</svg>
