<svg width="48" height="48" viewBox="0 0 48 48" fill="none" xmlns="http://www.w3.org/2000/svg">
<path d="M47.4998 24C47.4998 36.9787 36.9786 47.5 23.9999 47.5C11.0213 47.5 0.5 36.9787 0.5 24C0.5 11.0213 11.0213 0.5 23.9999 0.5C36.9786 0.5 47.4998 11.0213 47.4998 24Z" fill="white" stroke="white"/>
<mask id="path-2-inside-1_351_3466" fill="white">
<path fill-rule="evenodd" clip-rule="evenodd" d="M3.37354 36.2763C7.5611 43.2974 15.2316 48.0002 24.0005 48.0002C37.2553 48.0002 48.0004 37.255 48.0004 24.0002C48.0004 19.7415 46.8912 15.7418 44.9459 12.2744L3.37354 36.2763Z"/>
</mask>
<path fill-rule="evenodd" clip-rule="evenodd" d="M3.37354 36.2763C7.5611 43.2974 15.2316 48.0002 24.0005 48.0002C37.2553 48.0002 48.0004 37.255 48.0004 24.0002C48.0004 19.7415 46.8912 15.7418 44.9459 12.2744L3.37354 36.2763Z" fill="#E23063"/>
<path d="M3.37354 36.2763L2.87353 35.4103L1.99513 35.9174L2.51469 36.7885L3.37354 36.2763ZM44.9459 12.2744L45.818 11.7851L45.3227 10.9022L44.4459 11.4084L44.9459 12.2744ZM24.0005 47.0002C15.5982 47.0002 8.24702 42.4952 4.23238 35.7641L2.51469 36.7885C6.87517 44.0995 14.865 49.0002 24.0005 49.0002V47.0002ZM47.0004 24.0002C47.0004 36.7028 36.703 47.0002 24.0005 47.0002V49.0002C37.8076 49.0002 49.0004 37.8073 49.0004 24.0002H47.0004ZM44.0738 12.7637C45.9374 16.0855 47.0004 19.9172 47.0004 24.0002H49.0004C49.0004 19.5657 47.845 15.3981 45.818 11.7851L44.0738 12.7637ZM44.4459 11.4084L2.87353 35.4103L3.87354 37.1423L45.4459 13.1404L44.4459 11.4084Z" fill="white" mask="url(#path-2-inside-1_351_3466)"/>
<circle cx="24" cy="24" r="4.5" fill="#26E55F" stroke="white"/>
</svg>
